<?xml version="1.0" encoding="UTF-8" standalone="no"?>
<svg
   version="1.1"
   width="476"
   height="305"
   id="svg29"
   sodipodi:docname="logo-only.svg"
   inkscape:version="1.4.3 (0d15f75, 2025-12-25)"
   inkscape:export-filename="logo-only.png"
   inkscape:export-xdpi="96"
   inkscape:export-ydpi="96"
   xmlns:inkscape="http://www.inkscape.org/namespaces/inkscape"
   xmlns:sodipodi="http://sodipodi.sourceforge.net/DTD/sodipodi-0.dtd"
   xmlns:xlink="http://www.w3.org/1999/xlink"
   xmlns="http://www.w3.org/2000/svg"
   xmlns:svg="http://www.w3.org/2000/svg">
  <defs
     id="defs29">
    <linearGradient
       id="linearGradient142"
       inkscape:collect="always">
      <stop
         style="stop-color:#f98d40;stop-opacity:1;"
         offset="0"
         id="stop141" />
      <stop
         style="stop-color:#fba96f;stop-opacity:0;"
         offset="1"
         id="stop142" />
    </linearGradient>
    <linearGradient
       id="linearGradient140"
       inkscape:collect="always">
      <stop
         style="stop-color:#fbb07a;stop-opacity:0;"
         offset="0"
         id="stop139" />
      <stop
         style="stop-color:#fcc6a0;stop-opacity:1;"
         offset="1"
         id="stop140" />
    </linearGradient>
    <linearGradient
       id="linearGradient138"
       inkscape:collect="always">
      <stop
         style="stop-color:#f98d40;stop-opacity:0;"
         offset="0"
         id="stop138" />
      <stop
         style="stop-color:#f98d40;stop-opacity:1;"
         offset="1"
         id="stop137" />
    </linearGradient>
    <linearGradient
       id="linearGradient136"
       inkscape:collect="always">
      <stop
         style="stop-color:#f98d40;stop-opacity:0;"
         offset="0"
         id="stop136" />
      <stop
         style="stop-color:#f98d40;stop-opacity:1;"
         offset="1"
         id="stop135" />
    </linearGradient>
    <linearGradient
       id="linearGradient125"
       inkscape:collect="always">
      <stop
         style="stop-color:#f98d40;stop-opacity:0;"
         offset="0"
         id="stop125" />
      <stop
         style="stop-color:#f98d40;stop-opacity:1;"
         offset="1"
         id="stop124" />
    </linearGradient>
    <linearGradient
       id="linearGradient104"
       inkscape:collect="always">
      <stop
         style="stop-color:#f98d40;stop-opacity:1;"
         offset="0"
         id="stop104" />
      <stop
         style="stop-color:#f98d40;stop-opacity:0;"
         offset="1"
         id="stop105" />
    </linearGradient>
    <linearGradient
       id="linearGradient53"
       inkscape:collect="always">
      <stop
         style="stop-color:#b23d00;stop-opacity:1;"
         offset="0"
         id="stop52" />
      <stop
         style="stop-color:#ffbb97;stop-opacity:0;"
         offset="1"
         id="stop53" />
    </linearGradient>
    <linearGradient
       id="linearGradient49"
       inkscape:collect="always">
      <stop
         style="stop-color:#fd4a01;stop-opacity:1;"
         offset="0"
         id="stop49" />
      <stop
         style="stop-color:#fdad03;stop-opacity:1;"
         offset="0.5"
         id="stop51" />
      <stop
         style="stop-color:#fd6a07;stop-opacity:1;"
         offset="1"
         id="stop50" />
    </linearGradient>
    <linearGradient
       id="linearGradient47"
       inkscape:collect="always">
      <stop
         style="stop-color:#ff5f0a;stop-opacity:1;"
         offset="0"
         id="stop46" />
      <stop
         style="stop-color:#ffbb97;stop-opacity:0;"
         offset="1"
         id="stop47" />
    </linearGradient>
    <linearGradient
       id="linearGradient39"
       inkscape:collect="always">
      <stop
         style="stop-color:#ff8748;stop-opacity:1;"
         offset="0"
         id="stop39" />
      <stop
         style="stop-color:#ff8748;stop-opacity:0;"
         offset="1"
         id="stop40" />
    </linearGradient>
    <linearGradient
       id="linearGradient37"
       inkscape:collect="always">
      <stop
         style="stop-color:#ffae83;stop-opacity:1;"
         offset="0"
         id="stop37" />
      <stop
         style="stop-color:#ffae83;stop-opacity:0;"
         offset="1"
         id="stop38" />
    </linearGradient>
    <linearGradient
       id="linearGradient35"
       inkscape:collect="always">
      <stop
         style="stop-color:#b23d00;stop-opacity:1;"
         offset="0"
         id="stop35" />
      <stop
         style="stop-color:#ff8748;stop-opacity:0;"
         offset="1"
         id="stop36" />
    </linearGradient>
    <linearGradient
       id="linearGradient33"
       inkscape:collect="always">
      <stop
         style="stop-color:#ff5f0a;stop-opacity:1;"
         offset="0"
         id="stop33" />
      <stop
         style="stop-color:#ffbb97;stop-opacity:0;"
         offset="1"
         id="stop34" />
    </linearGradient>
    <linearGradient
       inkscape:collect="always"
       xlink:href="#linearGradient33"
       id="linearGradient34"
       x1="253.27108"
       y1="72.660465"
       x2="473.20918"
       y2="72.660465"
       gradientUnits="userSpaceOnUse" />
    <linearGradient
       inkscape:collect="always"
       xlink:href="#linearGradient35"
       id="linearGradient36"
       x1="262.72268"
       y1="74.513427"
       x2="450.32432"
       y2="74.513427"
       gradientUnits="userSpaceOnUse" />
    <linearGradient
       inkscape:collect="always"
       xlink:href="#linearGradient37"
       id="linearGradient38"
       x1="286.12236"
       y1="151.83669"
       x2="389.5375"
       y2="151.83669"
       gradientUnits="userSpaceOnUse" />
    <linearGradient
       inkscape:collect="always"
       xlink:href="#linearGradient39"
       id="linearGradient40"
       x1="285.87653"
       y1="151.6164"
       x2="382.92851"
       y2="151.6164"
       gradientUnits="userSpaceOnUse" />
    <linearGradient
       inkscape:collect="always"
       xlink:href="#linearGradient35"
       id="linearGradient42"
       gradientUnits="userSpaceOnUse"
       x1="262.72268"
       y1="74.513427"
       x2="450.32432"
       y2="74.513427"
       gradientTransform="matrix(1,0,0,-1,-1.1836997,306.30411)" />
    <linearGradient
       inkscape:collect="always"
       xlink:href="#linearGradient33"
       id="linearGradient43"
       gradientUnits="userSpaceOnUse"
       x1="253.27108"
       y1="72.660465"
       x2="473.20918"
       y2="72.660465"
       gradientTransform="matrix(1,0,0,-1,-1.1836997,306.30411)" />
    <linearGradient
       inkscape:collect="always"
       xlink:href="#linearGradient47"
       id="linearGradient45"
       gradientUnits="userSpaceOnUse"
       gradientTransform="matrix(-0.17526303,0.98867513,1.1546367,0.15007162,206.84719,-215.95467)"
       x1="253.27108"
       y1="72.660465"
       x2="473.20918"
       y2="72.660465" />
    <linearGradient
       inkscape:collect="always"
       xlink:href="#linearGradient53"
       id="linearGradient48"
       gradientUnits="userSpaceOnUse"
       gradientTransform="matrix(-0.12649076,0.98867513,0.83332393,0.15007162,200.09022,-215.95467)"
       x1="253.27108"
       y1="72.660465"
       x2="456.3869"
       y2="90.530083" />
    <linearGradient
       inkscape:collect="always"
       xlink:href="#linearGradient49"
       id="linearGradient50"
       x1="-153.8888"
       y1="150.80154"
       x2="136.79512"
       y2="150.80154"
       gradientUnits="userSpaceOnUse" />
    <linearGradient
       inkscape:collect="always"
       xlink:href="#linearGradient49"
       id="linearGradient55"
       x1="286.36514"
       y1="151.69849"
       x2="394.49313"
       y2="151.69849"
       gradientUnits="userSpaceOnUse"
       gradientTransform="matrix(0.00376215,-0.9397836,1.0429224,0.00339009,178.76914,470.22606)" />
    <linearGradient
       inkscape:collect="always"
       xlink:href="#linearGradient104"
       id="linearGradient105"
       x1="4.253185"
       y1="151.98179"
       x2="67.891544"
       y2="151.98179"
       gradientUnits="userSpaceOnUse" />
    <linearGradient
       inkscape:collect="always"
       xlink:href="#linearGradient104"
       id="linearGradient106"
       x1="41.081282"
       y1="193.27389"
       x2="95.233616"
       y2="193.27389"
       gradientUnits="userSpaceOnUse" />
    <linearGradient
       inkscape:collect="always"
       xlink:href="#linearGradient104"
       id="linearGradient107"
       x1="101.60567"
       y1="70.278509"
       x2="189.25105"
       y2="70.278509"
       gradientUnits="userSpaceOnUse" />
    <linearGradient
       inkscape:collect="always"
       xlink:href="#linearGradient104"
       id="linearGradient108"
       x1="107.63488"
       y1="192.27637"
       x2="175.34789"
       y2="192.27637"
       gradientUnits="userSpaceOnUse" />
    <linearGradient
       inkscape:collect="always"
       xlink:href="#linearGradient138"
       id="linearGradient109"
       x1="93.035962"
       y1="234.88957"
       x2="195.66807"
       y2="234.88957"
       gradientUnits="userSpaceOnUse"
       gradientTransform="matrix(0.99615552,0,0,0.65268292,0.7522411,78.720524)" />
    <linearGradient
       inkscape:collect="always"
       xlink:href="#linearGradient104"
       id="linearGradient118"
       gradientUnits="userSpaceOnUse"
       gradientTransform="matrix(0.98394681,0,0,0.4175552,3.1410956,130.97161)"
       x1="93.938225"
       y1="234.94862"
       x2="195.66807"
       y2="234.88957" />
    <linearGradient
       inkscape:collect="always"
       xlink:href="#linearGradient104"
       id="linearGradient121"
       gradientUnits="userSpaceOnUse"
       gradientTransform="matrix(0.65025418,0,0,0.4175552,48.346038,88.563498)"
       x1="93.938225"
       y1="234.94862"
       x2="195.66807"
       y2="234.88957" />
    <linearGradient
       inkscape:collect="always"
       xlink:href="#linearGradient136"
       id="linearGradient122"
       gradientUnits="userSpaceOnUse"
       gradientTransform="matrix(0.66036786,0,0,0.65268292,46.367116,36.312412)"
       x1="93.035962"
       y1="234.88957"
       x2="195.66807"
       y2="234.88957" />
    <linearGradient
       inkscape:collect="always"
       xlink:href="#linearGradient104"
       id="linearGradient123"
       gradientUnits="userSpaceOnUse"
       gradientTransform="matrix(0.82320147,0,0,0.4175552,8.3677453,47.663052)"
       x1="93.938225"
       y1="234.94862"
       x2="195.66807"
       y2="234.88957" />
    <linearGradient
       inkscape:collect="always"
       xlink:href="#linearGradient125"
       id="linearGradient124"
       gradientUnits="userSpaceOnUse"
       gradientTransform="matrix(0.81709445,0,0,0.65268292,9.5627022,-4.5880339)"
       x1="93.035962"
       y1="234.88957"
       x2="195.66807"
       y2="234.88957" />
    <linearGradient
       inkscape:collect="always"
       xlink:href="#linearGradient142"
       id="linearGradient126"
       gradientUnits="userSpaceOnUse"
       gradientTransform="matrix(1.0589811,0,0,-0.47020156,-37.487785,226.00317)"
       x1="93.938225"
       y1="234.94862"
       x2="195.66807"
       y2="234.88957" />
    <linearGradient
       inkscape:collect="always"
       xlink:href="#linearGradient140"
       id="linearGradient127"
       gradientUnits="userSpaceOnUse"
       gradientTransform="matrix(1.0721208,0,0,-0.73497475,-40.05881,284.8422)"
       x1="93.035962"
       y1="234.88957"
       x2="195.66807"
       y2="234.88957" />
    <linearGradient
       inkscape:collect="always"
       xlink:href="#linearGradient104"
       id="linearGradient128"
       gradientUnits="userSpaceOnUse"
       gradientTransform="matrix(0.82851866,0,0,-0.47020156,26.857404,186.10606)"
       x1="93.938225"
       y1="234.94862"
       x2="195.66807"
       y2="234.88957" />
    <linearGradient
       inkscape:collect="always"
       xlink:href="#linearGradient125"
       id="linearGradient129"
       gradientUnits="userSpaceOnUse"
       gradientTransform="matrix(0.83879882,0,0,-0.73497475,24.845903,244.94509)"
       x1="93.035962"
       y1="234.88957"
       x2="195.66807"
       y2="234.88957" />
    <linearGradient
       inkscape:collect="always"
       xlink:href="#linearGradient104"
       id="linearGradient132"
       gradientUnits="userSpaceOnUse"
       gradientTransform="matrix(0.50523421,0,0,0.4175552,-4.1512115,89.684397)"
       x1="93.938225"
       y1="234.94862"
       x2="195.66807"
       y2="234.88957" />
    <linearGradient
       inkscape:collect="always"
       xlink:href="#linearGradient125"
       id="linearGradient133"
       gradientUnits="userSpaceOnUse"
       gradientTransform="matrix(0.50148607,0,0,0.65268292,-3.4178149,37.433312)"
       x1="93.035962"
       y1="234.88957"
       x2="195.66807"
       y2="234.88957" />
    <linearGradient
       inkscape:collect="always"
       xlink:href="#linearGradient104"
       id="linearGradient134"
       gradientUnits="userSpaceOnUse"
       gradientTransform="matrix(0.58705035,0,0,0.4175552,-48.036831,48.649468)"
       x1="93.938225"
       y1="234.94862"
       x2="195.66807"
       y2="234.88957" />
    <linearGradient
       inkscape:collect="always"
       xlink:href="#linearGradient125"
       id="linearGradient135"
       gradientUnits="userSpaceOnUse"
       gradientTransform="matrix(0.58269525,0,0,0.65268292,-47.18467,-3.6016169)"
       x1="93.035962"
       y1="234.88957"
       x2="195.66807"
       y2="234.88957" />
  </defs>
  <sodipodi:namedview
     id="namedview29"
     pagecolor="#ffffff"
     bordercolor="#000000"
     borderopacity="0.25"
     inkscape:showpageshadow="2"
     inkscape:pageopacity="0.0"
     inkscape:pagecheckerboard="0"
     inkscape:deskcolor="#d1d1d1"
     inkscape:zoom="7.1684399"
     inkscape:cx="361.86395"
     inkscape:cy="140.68612"
     inkscape:window-width="1920"
     inkscape:window-height="991"
     inkscape:window-x="-9"
     inkscape:window-y="-9"
     inkscape:window-maximized="1"
     inkscape:current-layer="svg29"
     inkscape:export-bgcolor="#ffffff00" />
  <path
     d="M 0,0 3.8701172,0.02050781 C 12.631339,0.11668665 21.016044,0.52419536 29.625,2.25 l 3.789062,0.671875 C 51.646027,6.4590575 70.118147,14.067555 85.625,24.25 l 1.717773,1.123047 c 8.699894,5.75524 16.427187,12.302948 23.910157,19.556152 1.14985,1.106886 2.32459,2.187839 3.50488,3.262207 4.79267,4.481843 8.78242,9.58044 12.80469,14.746094 l 1.75977,2.235107 1.64257,2.151612 1.48023,1.92456 c 1.36596,2.316734 3.9585,3.764187 4.35005,6.409371 -8.51598,4.892158 -19.22641,10.201774 -28.06953,14.47808 -3.69004,1.814193 -7.23681,3.759817 -10.745121,5.906739 l -2.330323,1.424072 c -1.49007,0.92212 -2.971509,1.858371 -4.442871,2.810059 -4.963596,3.07747 -4.963596,3.07747 -7.801025,2.5979 C 81.002709,100.6823 79.248025,98.286312 77.375,95.625 70.897289,86.70131 63.850151,80.251589 54.625,74.25 l -3,-2.039063 C 43.67792,67.010275 35.722935,63.770309 26.625,61.25 L 23.371094,60.28125 C 7.064562,56.042729 -10.474554,56.938241 -26.375,62.25 l -6.758165,2.074159 C -45.383951,68.631647 -52.615347,74.775426 -62.375,83.25 l -1.820312,1.53125 c -14.121419,12.873479 -25.040749,35.1675 -26.372559,54.22925 -0.762129,28.39045 5.308845,52.71514 24.856934,74.24341 17.177757,17.7826 39.458178,27.80393 64.1928706,28.48388 27.2371164,0.1125 51.8728514,-8.44519 71.5141604,-27.82763 5.373753,-5.73624 9.634088,-11.90365 13.628906,-18.66016 4.826452,0.62867 8.664783,2.64018 12.941406,4.82422 l 2.313706,1.16328 c 2.438678,1.22771 4.873068,2.46366 7.307388,3.7 1.60975,0.81241 3.21977,1.62426 4.83008,2.43555 3.10906,1.56725 6.21659,3.13746 9.32275,4.71045 5.41815,2.74237 10.84952,5.45799 16.28467,8.1665 -1.49991,4.7993 -3.46842,8.5323 -6.4375,12.5625 l -1.32764,1.82666 c -4.76821,6.47295 -9.89559,12.60416 -15.23486,18.61084 l -1.875,2.13281 C 92.628131,275.78516 66.156513,288.6783 39.625,296.25 l -2.214844,0.646 c -24.781396,6.86497 -55.39525,6.15444 -79.785156,-1.646 -1.58415,-0.4639 -3.168786,-0.92614 -4.753906,-1.38672 C -84.574218,282.56975 -116.13899,256.03128 -135.375,222.25 l -1.03516,-1.81689 c -2.44739,-4.33375 -4.75695,-8.72278 -6.96484,-13.18311 l -1.4375,-2.89063 c -7.55165,-17.2744 -9.03522,-36.67157 -9.0625,-55.29687 l -0.0133,-2.18829 c -0.0344,-13.48026 1.68612,-26.64845 6.13834,-39.43671 l 0.76465,-2.22778 C -140.06077,85.722492 -129.86472,68.869679 -116.375,53.25 l 2.05859,-2.429688 c 4.30911,-4.989491 8.82796,-9.413464 13.94141,-13.570312 l 2.796875,-2.304688 C -80.506859,21.17141 -60.583359,10.896381 -39.375,5.25 l 3.007813,-0.8320313 C -24.274576,1.2132688 -12.499281,-0.09612282 0,0 Z"
     fill="#fd6a07"
     transform="translate(336.375,3.75)"
     id="path2"
     sodipodi:nodetypes="ccccccccccccccccccccccccccccccccccccccccccccccccccccccccccccc"
     style="mix-blend-mode:multiply;fill:url(#linearGradient50)" />
  <ellipse
     style="fill:#ffffff;fill-opacity:1;stroke-width:1.38216;stroke-linejoin:round"
     id="path142"
     cx="338.21869"
     cy="151.35793"
     rx="52.661396"
     ry="49.941132" />
  <path
     d="m 360.94309,104.46918 c 14.20822,7.10227 24.63159,18.01727 29.59909,32.87572 0.0221,1.12277 0.0443,2.24555 0.067,3.40234 -0.65202,0.0191 -1.30405,0.038 -1.97584,0.0577 -6.77802,0.20125 -13.55494,0.4257 -20.33173,0.66379 -2.53018,0.0858 -5.06054,0.16566 -7.59112,0.23949 -3.63471,0.10706 -7.26808,0.2354 -10.9019,0.36801 -1.13401,0.0282 -2.26798,0.0575 -3.43634,0.0873 -1.58091,0.0637 -1.58091,0.0637 -3.19376,0.12872 -0.92776,0.0302 -1.85553,0.0604 -2.81141,0.0915 -3.04456,0.62854 -4.43797,0.56288 -6.21435,3.01591 -2.25247,2.25952 -2.36955,8.33852 1.39399,11.31891 2.65598,2.46395 5.67518,2.1528 9.02191,2.15427 1.0314,0.003 2.06279,0.006 3.12543,0.01 1.1089,-0.002 2.2178,-0.005 3.36031,-0.007 1.70812,0.004 1.70812,0.004 3.45075,0.006 3.63924,0.006 7.27841,0.003 10.91765,2.6e-4 2.46643,0.003 4.93286,0.005 7.39929,0.008 6.04819,0.007 12.09633,0.007 18.14452,0.003 -1.53871,13.15663 -8.74762,23.11387 -19.21151,31.64012 -2.27184,1.52525 -4.57383,2.78339 -7.02015,4.02889 -1.41272,0.8166 -1.41272,0.8166 -2.85397,1.64966 -11.7686,6.03852 -25.84006,6.54227 -38.7291,3.84676 -14.60953,-5.06212 -24.95879,-15.1001 -32.63481,-27.91204 -5.21766,-11.24536 -6.80321,-24.95479 -2.5491,-36.75324 7.03031,-16.41109 18.71377,-25.93812 35.13432,-33.07267 11.68757,-4.021958 26.70694,-2.495326 37.84082,2.14859 z"
     fill="#fd720a"
     id="path3"
     style="fill:url(#linearGradient55);stroke-width:1.15243"
     sodipodi:nodetypes="cccccccccccccccccccccccccccc" />
  <path
     d="m 0,0 c 1.0021353,-0.00394272 2.0042706,-0.00788544 3.0367737,-0.01194763 3.3076701,-0.0067054 6.6139562,0.02243838 9.9214783,0.05271911 2.297345,0.0042499 4.594695,0.0065786 6.892044,0.0070648 4.811005,0.0061643 9.621543,0.0288638 14.432419,0.06446839 6.177596,0.0453486 12.354772,0.0600299 18.532519,0.0637369 4.741373,0.00442 9.482656,0.0197081 14.223991,0.0388765 2.278657,0.0089 4.557324,0.0156211 6.835994,0.0201607 3.177175,0.009006 6.353961,0.0313627 9.531031,0.0578899 0.94808,6.6467e-4 1.896161,0.001329 2.872971,0.002014 1.293272,0.0149627 1.293272,0.0149627 2.61267,0.0302277 0.75122,0.004651 1.50244,0.009301 2.276424,0.0140925 1.840718,0.26006221 1.840718,0.26006221 3.840718,2.26006218 -0.290626,5.812531 -2.595133,13.0586498 -6.322573,17.6176158 -3.006518,2.477702 -7.017777,1.805556 -10.751157,1.786437 -1.393124,0.01029 -1.393124,0.01029 -2.814392,0.0208 -3.07651,0.01833 -6.152513,0.01442 -9.229065,0.0087 -2.13608,0.0046 -4.272158,0.0099 -6.408234,0.01588 -4.480682,0.0089 -8.961186,0.0065 -13.441864,-0.0034 -5.742551,-0.01148 -11.484487,0.0087 -17.226957,0.03792 -4.412945,0.01835 -8.825741,0.01807 -13.238714,0.01236 -2.117103,-1.54e-4 -4.234215,0.0059 -6.3512807,0.01829 -2.9614735,0.01488 -5.9218058,0.0043 -8.88324357,-0.01291 -1.31247207,0.0145 -1.31247207,0.0145 -2.65145873,0.0293 -4.092295,-0.04967 -6.1630803,-0.204118 -9.701843,-2.437363 -2.842612,-3.006952 -3.196125,-4.850462 -3.354218,-8.906143 -0.04898,-0.8520701 -0.09797,-1.7041404 -0.148437,-2.582031 C -13.837171,-0.14378088 -6.965488,-0.10968921 0,0 Z"
     fill="#FD7009"
     transform="translate(74.990967,99.400635)"
     id="path5"
     style="mix-blend-mode:multiply;fill:#f98d40;fill-opacity:1" />
  <path
     d="m 95.273765,140.51219 c 1.083242,-0.0101 1.083242,-0.0101 2.188369,-0.0203 2.393934,-0.019 4.787536,-0.0229 7.181556,-0.0251 1.66323,-0.006 3.32644,-0.0132 4.98966,-0.0202 3.49055,-0.012 6.981,-0.0157 10.47157,-0.0145 4.46814,2.1e-4 8.93554,-0.0271 13.40349,-0.0615 3.43737,-0.0223 6.87454,-0.0263 10.31199,-0.0252 1.64679,-0.002 3.2936,-0.0112 4.9403,-0.0267 2.30773,-0.0197 4.61384,-0.0138 6.92158,-0.002 1.31203,-0.003 2.62405,-0.006 3.97584,-0.009 4.15449,0.59003 5.93985,1.80832 8.90936,4.49448 1.73808,3.20224 1.62643,6.52539 1.08554,10 -0.50951,1.98893 -2.1738,4.65475 -2.1738,4.65475 0,0 -0.56762,1.13675 -1.60891,1.75089 -0.81717,0.64163 -3.02759,0.38771 -3.9084,0.61902 -9.51182,0.13922 -17.84536,0.22107 -27.35812,0.28621 -4.41757,0.0313 -8.83431,0.0737 -13.2514,0.14176 -4.26542,0.0653 -8.53006,0.10111 -12.79603,0.11663 -1.62479,0.0111 -3.24954,0.0327 -4.87399,0.0651 -14.328456,0.27485 -14.328456,0.27485 -18.626606,-3.4171 -3.014381,-4.31831 -3.030891,-6.15478 -2.245814,-11.21728 3.119497,-6.00862 5.326205,-7.24897 12.463815,-7.29053 z"
     fill="#fd700d"
     id="path7"
     style="mix-blend-mode:multiply;fill:#f98d40;fill-opacity:1;stroke-width:1.04189"
     sodipodi:nodetypes="ccccccccccccccccccccccc" />
  <path
     d="M0 0 C0.66 0.33 1.32 0.66 2 1 C1.00795408 2.33926199 0.00573778 3.67098936 -1 5 C-1.639375 5.886875 -2.27875 6.77375 -2.9375 7.6875 C-5.13715969 10.15378511 -5.9012252 10.41129748 -9 11 C-8.06558465 9.72689688 -7.12732889 8.456612 -6.1875 7.1875 C-5.66542969 6.47980469 -5.14335937 5.77210937 -4.60546875 5.04296875 C-3.16871123 3.21468607 -1.68184237 1.60103312 0 0 Z "
     fill="#FB7D2A"
     transform="translate(228,48)"
     id="path22" />
  <path
     d="M0 0 C4.455 1.98 4.455 1.98 9 4 C8.34 4.66 7.68 5.32 7 6 C4.69 5.01 2.38 4.02 0 3 C0 2.01 0 1.02 0 0 Z "
     fill="#FD7A1E"
     transform="translate(294,235)"
     id="path26" />
  <path
     d="M0 0 C-6.75 4 -6.75 4 -9 4 C-8 1 -8 1 -6.1875 -0.25 C-3.66056586 -1.11637742 -2.47778006 -0.88492145 0 0 Z "
     fill="#FB791E"
     transform="translate(462,85)"
     id="path28" />
  <path
     d="M0 0 C0.66 0 1.32 0 2 0 C1.375 1.875 1.375 1.875 0 4 C-3.125 5.25 -3.125 5.25 -6 6 C-4 4 -2 2 0 0 Z "
     fill="#FDF4E9"
     transform="translate(285,77)"
     id="path29" />
  <path
     style="mix-blend-mode:multiply;fill:url(#linearGradient34);fill-opacity:1;stroke-width:1.13386;stroke-linejoin:round"
     d="m 473.20918,79.46734 -52.75507,28.22694 c 2.78472,-5.56945 -36.63639,-42.882927 -83.49422,-46.33917 -53.70815,-3.961524 -84.9766,50.80399 -83.64812,52.28008 0,0 32.54537,-60.461 58.59315,-71.021995 52.75837,-21.390728 84.82538,-6.027377 101.85317,1.18992 18.30429,7.758345 59.45109,35.664225 59.45109,35.664225 z"
     id="path32"
     sodipodi:nodetypes="ccscssc" />
  <path
     style="mix-blend-mode:multiply;fill:url(#linearGradient36);stroke-width:1.13386;stroke-linejoin:round"
     d="m 450.32432,91.501622 -29.87021,16.192658 c 2.78472,-5.56945 -38.23058,-48.86947 -85.16822,-46.757671 -51.47614,2.315993 -73.67707,36.714453 -72.34859,38.190543 -3.50379,-3.503791 43.20027,-41.46866 59.62092,-48.228058 36.10032,-14.860346 57.00843,-7.211077 74.03622,0.0062 18.30429,7.758345 53.72988,40.596308 53.72988,40.596308 z"
     id="path33"
     sodipodi:nodetypes="ccscssc" />
  <path
     style="mix-blend-mode:multiply;fill:url(#linearGradient40);fill-opacity:1;stroke-width:1.13386;stroke-linejoin:round"
     d="m 382.92851,122.48132 c 0,0 -21.95538,-27.656975 -52.45214,-20.50655 -46.53975,10.91194 -45.43113,48.71039 -44.22162,52.87063 0.37031,20.26641 10.07151,27.06508 20.08806,36.8281 8.71042,6.53713 17.64905,9.03367 25.62019,10.76546 -11.05363,-6.66225 -22.31758,-17.46538 -26.45719,-33.22501 -0.91922,-9.66542 -1.67726,-35.04605 20.78555,-48.40663 21.18207,-10.79562 40.86927,-7.66693 56.63715,1.674 z"
     id="path36"
     sodipodi:nodetypes="cscccccc" />
  <path
     style="mix-blend-mode:multiply;fill:url(#linearGradient38);fill-opacity:1;stroke-width:1.13386;stroke-linejoin:round"
     d="m 389.5375,132.1482 c 0,0 -18.69697,-35.872815 -60.24483,-29.58158 -37.73189,5.71341 -44.24743,48.11854 -43.03792,52.27878 0.37031,20.26641 10.07151,27.06508 20.08806,36.8281 8.71042,6.53713 17.64905,8.44182 25.62019,10.17361 -11.05363,-6.66225 -12.35477,-17.2681 -16.49438,-33.02773 -0.91922,-9.66542 -3.55145,-23.30769 18.91136,-36.66827 21.18207,-10.79562 38.69915,-4.41175 55.15752,-0.003 z"
     id="path37"
     sodipodi:nodetypes="cscccccc" />
  <path
     style="mix-blend-mode:multiply;fill:url(#linearGradient43);fill-opacity:1;stroke-width:1.13386;stroke-linejoin:round"
     d="m 472.02548,226.83677 -52.75507,-28.22694 c 2.78472,5.56945 -36.63639,42.88293 -83.49422,46.33917 -53.70815,3.96152 -84.9766,-50.80399 -83.64812,-52.28008 0,0 32.54537,60.461 58.59315,71.022 52.75837,21.39072 84.82538,6.02737 101.85317,-1.18992 18.30429,-7.75835 59.45109,-35.66423 59.45109,-35.66423 z"
     id="path41"
     sodipodi:nodetypes="ccscssc" />
  <path
     style="mix-blend-mode:multiply;fill:url(#linearGradient42);stroke-width:1.13386;stroke-linejoin:round"
     d="m 449.14062,214.80249 -29.87021,-16.19266 c 2.78472,5.56945 -38.23058,48.86947 -85.16822,46.75767 -51.47614,-2.31599 -73.67707,-36.71445 -72.34859,-38.19054 -3.50379,3.50379 43.20027,41.46866 59.62092,48.22806 36.10032,14.86034 57.00843,7.21107 74.03622,-0.006 18.30429,-7.75835 53.72988,-40.59631 53.72988,-40.59631 z"
     id="path42"
     sodipodi:nodetypes="ccscssc" />
  <path
     style="mix-blend-mode:multiply;fill:url(#linearGradient45);fill-opacity:1;stroke-width:1.22534;stroke-linejoin:round"
     d="M 294.85595,298.85016 C 280.39872,283.07865 265.45797,274.55974 251.66232,248.86483 243.90656,229.85715 214.4117,173.2427 218.63344,126.39684 223.47238,72.702416 283.50638,10.944733 284.97789,12.479688 c 0,0 -44.73828,18.368512 -78.06942,60.68647 -36.85847,46.796352 -26.09012,120.535372 -5.54006,157.215182 15.92714,28.42835 86.55405,75.70388 93.48754,68.46882 z"
     id="path43"
     sodipodi:nodetypes="ccscssc" />
  <path
     style="mix-blend-mode:multiply;fill:url(#linearGradient48);fill-opacity:1;stroke-width:1.04098;stroke-linejoin:round"
     d="m 263.60787,298.85016 c -10.43407,-15.77151 -21.2171,-24.29042 -31.17369,-49.98533 -5.59749,-19.00768 -26.8845,-75.62213 -23.83759,-122.46799 3.49236,-53.694424 63.00211,-107.919087 64.06413,-106.384132 0,0 -46.51752,17.392009 -70.57326,59.709967 -26.60148,46.796355 -22.17776,98.773315 0.46564,148.845165 12.6351,27.94027 56.05073,77.51738 61.05477,70.28232 z"
     id="path47"
     sodipodi:nodetypes="ccscssc" />
  <path
     d="m 107.44264,245.94418 c 0.93059,0.004 1.86118,0.008 2.81996,0.012 3.0715,0.007 6.14172,-0.0224 9.21309,-0.0527 2.13332,-0.004 4.26663,-0.007 6.39995,-0.007 4.4675,-0.006 8.93457,-0.0289 13.40195,-0.0645 5.73652,-0.0454 11.47264,-0.06 17.2093,-0.0637 4.40284,-0.004 8.8056,-0.0197 13.2084,-0.0389 2.11597,-0.009 4.23194,-0.0156 6.34792,-0.0202 2.95032,-0.009 5.90029,-0.0314 8.85051,-0.0579 0.88039,-6.7e-4 1.76078,-0.001 2.66785,-0.002 1.20093,-0.015 1.20093,-0.015 2.42612,-0.0302 0.69758,-0.005 1.39517,-0.009 2.11389,-0.0141 1.70929,-0.26006 1.70929,-0.26006 3.56649,-2.26006 -0.26988,-5.81253 -2.40984,-13.05865 -5.87114,-17.61762 -2.79186,-2.4777 -6.51671,-1.80555 -9.98353,-1.78643 -1.29365,-0.0103 -1.29365,-0.0103 -2.61345,-0.0208 -2.85684,-0.0183 -5.71322,-0.0144 -8.57011,-0.009 -1.98357,-0.005 -3.96712,-0.01 -5.95069,-0.0159 -4.16076,-0.009 -8.32136,-0.006 -12.48211,0.003 -5.33255,0.0115 -10.66451,-0.009 -15.99697,-0.0379 -4.09786,-0.0183 -8.19558,-0.0181 -12.29348,-0.0124 -1.96594,1.6e-4 -3.93189,-0.006 -5.8978,-0.0183 -2.75002,-0.0149 -5.49899,-0.004 -8.24898,0.0129 -1.21876,-0.0145 -1.21876,-0.0145 -2.46215,-0.0293 -3.8001,0.0497 -5.723034,0.20412 -9.009131,2.43737 -2.63965,3.00695 -2.967923,4.85046 -3.114728,8.90614 -0.04548,0.85207 -0.09098,1.70414 -0.137839,2.58203 1.55748,8.34862 7.938528,8.31452 14.406678,8.20483 z"
     fill="#FD7009"
     id="path73"
     style="mix-blend-mode:multiply;fill:#fcbe7c;fill-opacity:1;stroke-width:0.963639" />
  <path
     d="m 117.13995,203.33098 c 0.61395,0.004 1.22793,0.008 1.86048,0.012 2.02648,0.007 4.0521,-0.0224 6.07848,-0.0527 1.40748,-0.004 2.81496,-0.007 4.22245,-0.007 2.9475,-0.006 5.89471,-0.0289 8.84212,-0.0645 3.78476,-0.0454 7.56924,-0.06 11.35408,-0.0637 2.90484,-0.004 5.80961,-0.0197 8.71442,-0.0389 1.39605,-0.009 2.79209,-0.0156 4.18813,-0.0202 1.94652,-0.009 3.8928,-0.0314 5.83926,-0.0579 0.58085,-6.7e-4 1.16169,-0.001 1.76015,-0.002 0.79233,-0.015 0.79233,-0.015 1.60065,-0.0302 0.46025,-0.005 0.92049,-0.009 1.39468,-0.0141 1.12773,-0.26006 1.12773,-0.26006 2.35304,-2.26006 -0.17805,-5.81253 -1.58992,-13.05865 -3.87357,-17.61762 -1.84195,-2.4777 -4.29949,-1.80555 -6.58678,-1.78643 -0.8535,-0.0103 -0.8535,-0.0103 -1.72424,-0.0208 -1.88485,-0.0183 -3.76938,-0.0144 -5.65426,-0.009 -1.30868,-0.005 -2.61736,-0.01 -3.92605,-0.0159 -2.74512,-0.009 -5.49013,-0.006 -8.23524,0.003 -3.51823,0.0115 -7.03607,-0.009 -10.55422,-0.0379 -2.70363,-0.0183 -5.40716,-0.0181 -8.11081,-0.0124 -1.29704,1.6e-4 -2.59411,-0.006 -3.89115,-0.0183 -1.81436,-0.0149 -3.62803,-0.004 -5.44238,0.0129 -0.80409,-0.0145 -0.80409,-0.0145 -1.62444,-0.0293 -2.50717,0.0497 -3.77584,0.20412 -5.94389,2.43737 -1.74155,3.00695 -1.95813,4.85046 -2.05498,8.90614 -0.03,0.85207 -0.06,1.70414 -0.091,2.58203 1.02758,8.34862 5.23757,8.31452 9.50502,8.20483 z"
     fill="#FD7009"
     id="path74"
     style="mix-blend-mode:multiply;fill:#fcbe7c;fill-opacity:1;stroke-width:0.782724" />
  <path
     d="m 113.90864,59.224529 c 0.7947,-0.0039 1.58939,-0.0079 2.40817,-0.01195 2.62299,-0.0067 5.24488,0.02244 7.86776,0.05272 1.8218,0.0042 3.64361,0.0066 5.46541,0.0071 3.81514,0.0062 7.62991,0.02886 11.44495,0.06447 4.89884,0.04535 9.79736,0.06003 14.69633,0.06374 3.75992,0.0044 7.51977,0.01971 11.27967,0.03888 1.80697,0.0089 3.61396,0.01562 5.42095,0.02016 2.51951,0.009 5.03871,0.03136 7.55813,0.05789 0.75183,6.64e-4 1.50366,0.0013 2.27828,0.002 1.02556,0.01496 1.02556,0.01496 2.07185,0.03023 0.59572,0.0047 1.19144,0.0093 1.80522,0.01409 1.45968,0.260062 1.45968,0.260062 3.04569,2.260062 -0.23046,5.812531 -2.05794,13.05865 -5.01381,17.617616 -2.38418,2.477702 -5.56512,1.805556 -8.5257,1.786437 -1.10475,0.01029 -1.10475,0.01029 -2.23182,0.0208 -2.43968,0.01833 -4.87896,0.01442 -7.31867,0.0087 -1.69392,0.0046 -3.38783,0.0099 -5.08175,0.01588 -3.55319,0.0089 -7.10624,0.0065 -10.65943,-0.0034 -4.55386,-0.01148 -9.10723,0.0087 -13.66103,0.03792 -3.49947,0.01835 -6.99883,0.01807 -10.49833,0.01236 -1.67886,-1.54e-4 -3.35775,0.0059 -5.03658,0.01829 -2.34846,0.01488 -4.69601,0.0043 -7.04444,-0.01291 -1.04079,0.0145 -1.04079,0.0145 -2.10261,0.0293 -3.2452,-0.04967 -4.88734,-0.204118 -7.69359,-2.437363 -2.2542,-3.006953 -2.53454,-4.850462 -2.65991,-8.906143 -0.0388,-0.85207 -0.0777,-1.70414 -0.11771,-2.582031 1.33006,-8.348615 6.77932,-8.314523 12.30297,-8.204834 z"
     fill="#FD7009"
     id="path75"
     style="mix-blend-mode:multiply;fill:#fcbe7c;fill-opacity:1;stroke-width:0.890507" />
  <path
     d="m 49.05305,182.3623 c 0.669388,-0.0101 0.669388,-0.0101 1.3523,-0.0203 1.479328,-0.019 2.958451,-0.0229 4.437833,-0.0251 1.02779,-0.006 2.055569,-0.0132 3.083353,-0.0202 2.156981,-0.012 4.313899,-0.0157 6.470892,-0.0145 2.761081,2.1e-4 5.521705,-0.0271 8.282668,-0.0615 2.124118,-0.0223 4.248113,-0.0263 6.37228,-0.0252 1.017632,-0.002 2.035276,-0.0112 3.052852,-0.0267 1.426058,-0.0197 2.851116,-0.0138 4.277181,-0.002 0.810767,-0.003 1.621528,-0.006 2.456864,-0.009 2.567262,0.59003 3.670523,1.80832 5.505527,4.49448 1.074044,3.20224 1.00505,6.52539 0.670808,10 -0.314851,1.98893 -1.343297,4.65475 -1.343297,4.65475 0,0 -0.35076,1.13675 -0.994223,1.75089 -0.504969,0.64163 -1.870895,0.38771 -2.415191,0.61902 -5.877816,0.13922 -11.027515,0.22107 -16.905912,0.28621 -2.729831,0.0313 -5.45915,0.0737 -8.188684,0.14176 -2.635811,0.0653 -5.271139,0.10111 -7.907289,0.11663 -1.004037,0.0111 -2.008049,0.0327 -3.011876,0.0651 -8.854249,0.27485 -8.854249,0.27485 -11.510285,-3.4171 -1.862733,-4.31831 -1.872935,-6.15478 -1.387798,-11.21728 1.927689,-6.00862 3.291321,-7.24897 7.701997,-7.29053 z"
     fill="#fd700d"
     id="path76"
     style="mix-blend-mode:multiply;fill:#fcbe7c;fill-opacity:1;stroke-width:0.819027"
     sodipodi:nodetypes="ccccccccccccccccccccccc" />
  <path
     d="m 13.621391,141.0702 c 0.786647,-0.0101 0.786647,-0.0101 1.589187,-0.0203 1.738466,-0.019 3.476691,-0.0229 5.215221,-0.0251 1.207831,-0.006 2.415649,-0.0132 3.623473,-0.0202 2.534826,-0.012 5.069578,-0.0157 7.604417,-0.0145 3.244748,2.1e-4 6.488959,-0.0271 9.733568,-0.0615 2.496206,-0.0223 4.992268,-0.0263 7.488531,-0.0252 1.195894,-0.002 2.391802,-0.0112 3.587629,-0.0267 1.675865,-0.0197 3.350555,-0.0138 5.026428,-0.002 0.952791,-0.003 1.905576,-0.006 2.88724,-0.009 3.016977,0.59003 4.313499,1.80832 6.469946,4.49448 1.262188,3.20224 1.181108,6.52539 0.788316,10 -0.370004,1.98893 -1.578606,4.65475 -1.578606,4.65475 0,0 -0.412204,1.13675 -1.168384,1.75089 -0.593426,0.64163 -2.198626,0.38771 -2.838268,0.61902 -6.90745,0.13922 -12.959237,0.22107 -19.86737,0.28621 -3.208024,0.0313 -6.415446,0.0737 -9.62312,0.14176 -3.097534,0.0653 -6.1945,0.10111 -9.292433,0.11663 -1.179917,0.0111 -2.359805,0.0327 -3.539475,0.0651 -10.405274,0.27485 -10.405274,0.27485 -13.5265757,-3.4171 -2.1890335,-4.31831 -2.2010226,-6.15478 -1.6309027,-11.21728 2.265368,-6.00862 3.8678715,-7.24897 9.0511784,-7.29053 z"
     fill="#fd700d"
     id="path77"
     style="mix-blend-mode:multiply;fill:#fcbe7c;fill-opacity:1;stroke-width:0.887869"
     sodipodi:nodetypes="ccccccccccccccccccccccc" />
  <path
     d="m 0,0 c 1.0021353,-0.00394272 2.0042706,-0.00788544 3.0367737,-0.01194763 3.3076701,-0.0067054 6.6139562,0.02243838 9.9214783,0.05271911 2.297345,0.0042499 4.594695,0.0065786 6.892044,0.0070648 4.811005,0.0061643 9.621543,0.0288638 14.432419,0.06446839 6.177596,0.0453486 12.354772,0.0600299 18.532519,0.0637369 4.741373,0.00442 9.482656,0.0197081 14.223991,0.0388765 2.278657,0.0089 4.557324,0.0156211 6.835994,0.0201607 3.177175,0.009006 6.353961,0.0313627 9.531031,0.0578899 0.94808,6.6467e-4 1.896161,0.001329 2.872971,0.002014 1.293272,0.0149627 1.293272,0.0149627 2.61267,0.0302277 0.75122,0.004651 1.50244,0.009301 2.276424,0.0140925 1.840718,0.26006221 1.840718,0.26006221 3.840718,2.26006218 -0.290626,5.812531 -2.595133,13.0586498 -6.322573,17.6176158 -3.006518,2.477702 -7.017777,1.805556 -10.751157,1.786437 -1.393124,0.01029 -1.393124,0.01029 -2.814392,0.0208 -3.07651,0.01833 -6.152513,0.01442 -9.229065,0.0087 -2.13608,0.0046 -4.272158,0.0099 -6.408234,0.01588 -4.480682,0.0089 -8.961186,0.0065 -13.441864,-0.0034 -5.742551,-0.01148 -11.484487,0.0087 -17.226957,0.03792 -4.412945,0.01835 -8.825741,0.01807 -13.238714,0.01236 -2.117103,-1.54e-4 -4.234215,0.0059 -6.3512807,0.01829 -2.9614735,0.01488 -5.9218058,0.0043 -8.88324357,-0.01291 -1.31247207,0.0145 -1.31247207,0.0145 -2.65145873,0.0293 -4.092295,-0.04967 -6.1630803,-0.204118 -9.701843,-2.437363 -2.842612,-3.006952 -3.196125,-4.850462 -3.354218,-8.906143 -0.04898,-0.8520701 -0.09797,-1.7041404 -0.148437,-2.582031 C -13.837171,-0.14378088 -6.965488,-0.10968921 0,0 Z"
     fill="#FD7009"
     transform="translate(74.990967,99.400635)"
     id="path98"
     style="mix-blend-mode:multiply;fill:#fcbe7c;fill-opacity:1" />
  <path
     d="m 95.273765,140.51219 c 1.083242,-0.0101 1.083242,-0.0101 2.188369,-0.0203 2.393934,-0.019 4.787536,-0.0229 7.181556,-0.0251 1.66323,-0.006 3.32644,-0.0132 4.98966,-0.0202 3.49055,-0.012 6.981,-0.0157 10.47157,-0.0145 4.46814,2.1e-4 8.93554,-0.0271 13.40349,-0.0615 3.43737,-0.0223 6.87454,-0.0263 10.31199,-0.0252 1.64679,-0.002 3.2936,-0.0112 4.9403,-0.0267 2.30773,-0.0197 4.61384,-0.0138 6.92158,-0.002 1.31203,-0.003 2.62405,-0.006 3.97584,-0.009 4.15449,0.59003 5.93985,1.80832 8.90936,4.49448 1.73808,3.20224 1.62643,6.52539 1.08554,10 -0.50951,1.98893 -2.1738,4.65475 -2.1738,4.65475 0,0 -0.56762,1.13675 -1.60891,1.75089 -0.81717,0.64163 -3.02759,0.38771 -3.9084,0.61902 -9.51182,0.13922 -17.84536,0.22107 -27.35812,0.28621 -4.41757,0.0313 -8.83431,0.0737 -13.2514,0.14176 -4.26542,0.0653 -8.53006,0.10111 -12.79603,0.11663 -1.62479,0.0111 -3.24954,0.0327 -4.87399,0.0651 -14.328456,0.27485 -14.328456,0.27485 -18.626606,-3.4171 -3.014381,-4.31831 -3.030891,-6.15478 -2.245814,-11.21728 3.119497,-6.00862 5.326205,-7.24897 12.463815,-7.29053 z"
     fill="#fd700d"
     id="path99"
     style="mix-blend-mode:multiply;fill:#fcbe7c;fill-opacity:1;stroke-width:1.04189"
     sodipodi:nodetypes="ccccccccccccccccccccccc" />
  <path
     d="m 107.78182,239.24409 c 0.92701,0.003 1.85403,0.006 2.80912,0.007 3.05969,0.005 6.11811,-0.0146 9.17767,-0.0344 2.12512,-0.003 4.25023,-0.005 6.37535,-0.005 4.45032,-0.004 8.90022,-0.0189 13.35042,-0.0421 5.71447,-0.0296 11.42854,-0.0391 17.14314,-0.0416 4.38591,-0.003 8.77175,-0.0128 13.15762,-0.0254 2.10784,-0.006 4.21567,-0.0102 6.32352,-0.0132 2.93897,-0.006 5.8776,-0.0205 8.81648,-0.0378 0.87701,-4.4e-4 1.75401,-6.5e-4 2.6576,-9.3e-4 1.19631,-0.01 1.19631,-0.01 2.41679,-0.0198 0.6949,-0.003 1.3898,-0.006 2.10576,-0.009 1.70272,-0.16973 1.70272,-0.16973 3.55278,-1.47509 -0.26884,-3.79374 -3.28835,-7.58607 -5.84857,-11.49873 -1.10422,-1.22258 -1.26365,-2.06622 -4.71714,-2.05374 -1.28867,-0.007 -3.80403,0.14096 -5.11876,0.13436 -2.84586,-0.012 -6.28311,-0.15696 -9.12901,-0.15396 -1.97595,-0.003 -5.4315,-0.0563 -7.40744,-0.0597 -4.14477,-0.006 -8.93054,0.0453 -13.0753,0.0513 -5.31205,0.007 -10.22894,-0.10465 -15.5409,-0.12335 -4.0821,-0.012 -6.14192,0.0375 -10.22407,0.0413 -1.95838,1e-4 -4.4593,-0.004 -6.41765,-0.012 -2.73945,-0.01 -3.9489,-0.003 -6.68832,0.008 -1.21407,-0.009 -3.82808,-0.10764 -5.06669,-0.11774 -3.78549,0.0324 -5.70103,-0.0147 -8.974496,1.44287 -2.629502,1.96258 -3.745646,4.34951 -3.891886,6.99658 -0.0453,0.55613 -0.287913,3.82491 -0.334592,4.3979 -0.273379,1.79926 8.105294,2.71409 14.548574,2.6425 z"
     fill="#FD7009"
     id="path100"
     style="mix-blend-mode:multiply;fill:url(#linearGradient109);fill-opacity:1;stroke-width:0.777014"
     sodipodi:nodetypes="ccccccscccccccccccccccccccccc" />
  <path
     d="m 117.13995,203.33098 c 0.61395,0.004 1.22793,0.008 1.86048,0.012 2.02648,0.007 4.0521,-0.0224 6.07848,-0.0527 1.40748,-0.004 2.81496,-0.007 4.22245,-0.007 2.9475,-0.006 5.89471,-0.0289 8.84212,-0.0645 3.78476,-0.0454 7.56924,-0.06 11.35408,-0.0637 2.90484,-0.004 5.80961,-0.0197 8.71442,-0.0389 1.39605,-0.009 2.79209,-0.0156 4.18813,-0.0202 1.94652,-0.009 3.8928,-0.0314 5.83926,-0.0579 0.58085,-6.7e-4 1.16169,-0.001 1.76015,-0.002 0.79233,-0.015 0.79233,-0.015 1.60065,-0.0302 0.46025,-0.005 0.92049,-0.009 1.39468,-0.0141 1.12773,-0.26006 1.12773,-0.26006 2.35304,-2.26006 -0.17805,-5.81253 -1.58992,-13.05865 -3.87357,-17.61762 -1.84195,-2.4777 -4.29949,-1.80555 -6.58678,-1.78643 -0.8535,-0.0103 -0.8535,-0.0103 -1.72424,-0.0208 -1.88485,-0.0183 -3.76938,-0.0144 -5.65426,-0.009 -1.30868,-0.005 -2.61736,-0.01 -3.92605,-0.0159 -2.74512,-0.009 -5.49013,-0.006 -8.23524,0.003 -3.51823,0.0115 -7.03607,-0.009 -10.55422,-0.0379 -2.70363,-0.0183 -5.40716,-0.0181 -8.11081,-0.0124 -1.29704,1.6e-4 -2.59411,-0.006 -3.89115,-0.0183 -1.81436,-0.0149 -3.62803,-0.004 -5.44238,0.0129 -0.80409,-0.0145 -0.80409,-0.0145 -1.62444,-0.0293 -2.50717,0.0497 -3.77584,0.20412 -5.94389,2.43737 -1.74155,3.00695 -1.95813,4.85046 -2.05498,8.90614 -0.03,0.85207 -0.06,1.70414 -0.091,2.58203 1.02758,8.34862 5.23757,8.31452 9.50502,8.20483 z"
     fill="#FD7009"
     id="path101"
     style="mix-blend-mode:multiply;fill:url(#linearGradient108);fill-opacity:1;stroke-width:0.782724" />
  <path
     d="m 113.90864,59.224529 c 0.7947,-0.0039 1.58939,-0.0079 2.40817,-0.01195 2.62299,-0.0067 5.24488,0.02244 7.86776,0.05272 1.8218,0.0042 3.64361,0.0066 5.46541,0.0071 3.81514,0.0062 7.62991,0.02886 11.44495,0.06447 4.89884,0.04535 9.79736,0.06003 14.69633,0.06374 3.75992,0.0044 7.51977,0.01971 11.27967,0.03888 1.80697,0.0089 3.61396,0.01562 5.42095,0.02016 2.51951,0.009 5.03871,0.03136 7.55813,0.05789 0.75183,6.64e-4 1.50366,0.0013 2.27828,0.002 1.02556,0.01496 1.02556,0.01496 2.07185,0.03023 0.59572,0.0047 1.19144,0.0093 1.80522,0.01409 1.45968,0.260062 1.45968,0.260062 3.04569,2.260062 -0.23046,5.812531 -2.05794,13.05865 -5.01381,17.617616 -2.38418,2.477702 -5.56512,1.805556 -8.5257,1.786437 -1.10475,0.01029 -1.10475,0.01029 -2.23182,0.0208 -2.43968,0.01833 -4.87896,0.01442 -7.31867,0.0087 -1.69392,0.0046 -3.38783,0.0099 -5.08175,0.01588 -3.55319,0.0089 -7.10624,0.0065 -10.65943,-0.0034 -4.55386,-0.01148 -9.10723,0.0087 -13.66103,0.03792 -3.49947,0.01835 -6.99883,0.01807 -10.49833,0.01236 -1.67886,-1.54e-4 -3.35775,0.0059 -5.03658,0.01829 -2.34846,0.01488 -4.69601,0.0043 -7.04444,-0.01291 -1.04079,0.0145 -1.04079,0.0145 -2.10261,0.0293 -3.2452,-0.04967 -4.88734,-0.204118 -7.69359,-2.437363 -2.2542,-3.006953 -2.53454,-4.850462 -2.65991,-8.906143 -0.0388,-0.85207 -0.0777,-1.70414 -0.11771,-2.582031 1.33006,-8.348615 6.77932,-8.314523 12.30297,-8.204834 z"
     fill="#FD7009"
     id="path102"
     style="mix-blend-mode:multiply;fill:url(#linearGradient107);fill-opacity:1;stroke-width:0.890507" />
  <path
     d="m 49.05305,182.3623 c 0.669388,-0.0101 0.669388,-0.0101 1.3523,-0.0203 1.479328,-0.019 2.958451,-0.0229 4.437833,-0.0251 1.02779,-0.006 2.055569,-0.0132 3.083353,-0.0202 2.156981,-0.012 4.313899,-0.0157 6.470892,-0.0145 2.761081,2.1e-4 5.521705,-0.0271 8.282668,-0.0615 2.124118,-0.0223 4.248113,-0.0263 6.37228,-0.0252 1.017632,-0.002 2.035276,-0.0112 3.052852,-0.0267 1.426058,-0.0197 2.851116,-0.0138 4.277181,-0.002 0.810767,-0.003 1.621528,-0.006 2.456864,-0.009 2.567262,0.59003 3.670523,1.80832 5.505527,4.49448 1.074044,3.20224 1.00505,6.52539 0.670808,10 -0.314851,1.98893 -1.343297,4.65475 -1.343297,4.65475 0,0 -0.35076,1.13675 -0.994223,1.75089 -0.504969,0.64163 -1.870895,0.38771 -2.415191,0.61902 -5.877816,0.13922 -11.027515,0.22107 -16.905912,0.28621 -2.729831,0.0313 -5.45915,0.0737 -8.188684,0.14176 -2.635811,0.0653 -5.271139,0.10111 -7.907289,0.11663 -1.004037,0.0111 -2.008049,0.0327 -3.011876,0.0651 -8.854249,0.27485 -8.854249,0.27485 -11.510285,-3.4171 -1.862733,-4.31831 -1.872935,-6.15478 -1.387798,-11.21728 1.927689,-6.00862 3.291321,-7.24897 7.701997,-7.29053 z"
     fill="#fd700d"
     id="path103"
     style="mix-blend-mode:multiply;fill:url(#linearGradient106);fill-opacity:1;stroke-width:0.819027"
     sodipodi:nodetypes="ccccccccccccccccccccccc" />
  <path
     d="m 13.621391,141.0702 c 0.786647,-0.0101 0.786647,-0.0101 1.589187,-0.0203 1.738466,-0.019 3.476691,-0.0229 5.215221,-0.0251 1.207831,-0.006 2.415649,-0.0132 3.623473,-0.0202 2.534826,-0.012 5.069578,-0.0157 7.604417,-0.0145 3.244748,2.1e-4 6.488959,-0.0271 9.733568,-0.0615 2.496206,-0.0223 4.992268,-0.0263 7.488531,-0.0252 1.195894,-0.002 2.391802,-0.0112 3.587629,-0.0267 1.675865,-0.0197 3.350555,-0.0138 5.026428,-0.002 0.952791,-0.003 1.905576,-0.006 2.88724,-0.009 3.016977,0.59003 4.313499,1.80832 6.469946,4.49448 1.262188,3.20224 1.181108,6.52539 0.788316,10 -0.370004,1.98893 -1.578606,4.65475 -1.578606,4.65475 0,0 -0.412204,1.13675 -1.168384,1.75089 -0.593426,0.64163 -2.198626,0.38771 -2.838268,0.61902 -6.90745,0.13922 -12.959237,0.22107 -19.86737,0.28621 -3.208024,0.0313 -6.415446,0.0737 -9.62312,0.14176 -3.097534,0.0653 -6.1945,0.10111 -9.292433,0.11663 -1.179917,0.0111 -2.359805,0.0327 -3.539475,0.0651 -10.405274,0.27485 -10.405274,0.27485 -13.5265757,-3.4171 -2.1890335,-4.31831 -2.2010226,-6.15478 -1.6309027,-11.21728 2.265368,-6.00862 3.8678715,-7.24897 9.0511784,-7.29053 z"
     fill="#fd700d"
     id="path104"
     style="mix-blend-mode:multiply;fill:url(#linearGradient105);fill-opacity:1;stroke-width:0.887869"
     sodipodi:nodetypes="ccccccccccccccccccccccc" />
  <path
     d="m 108.85894,233.66688 c 0.91565,0.002 1.83131,0.004 2.77469,0.004 3.02219,0.003 6.04313,-0.009 9.06519,-0.022 2.09908,-0.002 4.19814,-0.003 6.29722,-0.003 4.39577,-0.003 8.79114,-0.0121 13.18679,-0.0269 5.64444,-0.0189 11.28848,-0.025 16.93304,-0.0266 4.33216,-0.002 8.66425,-0.008 12.99636,-0.0163 2.08201,-0.004 4.16401,-0.007 6.24602,-0.008 2.90295,-0.004 5.80557,-0.0131 8.70843,-0.0242 0.86626,-2.8e-4 1.73251,-4.2e-4 2.62503,-6e-4 1.18165,-0.006 1.18165,-0.006 2.38717,-0.0127 0.68638,-0.002 1.37277,-0.004 2.07995,-0.006 1.68185,-0.10859 1.68185,-0.10859 3.50924,-0.94369 -0.26555,-2.42705 -3.24805,-4.85321 -5.77689,-7.35634 -1.09069,-0.78215 -1.24816,-1.32187 -4.65933,-1.31388 -1.27287,-0.004 -3.75741,0.0902 -5.05602,0.086 -2.81099,-0.008 -6.20611,-0.10042 -9.01713,-0.0985 -1.95173,-0.002 -5.36493,-0.036 -7.31666,-0.0382 -4.09397,-0.004 -8.82108,0.029 -12.91505,0.0328 -5.24694,0.004 -10.10357,-0.0669 -15.35043,-0.0789 -4.03207,-0.008 -6.06665,0.024 -10.09877,0.0264 -1.93437,7e-5 -4.40464,-0.003 -6.33899,-0.008 -2.70588,-0.006 -3.90051,-0.002 -6.60635,0.005 -1.19919,-0.006 -3.78117,-0.0689 -5.0046,-0.0753 -3.73909,0.0207 -5.63115,-0.009 -8.864502,0.92308 -2.597275,1.25556 -4.365571,3.32514 -4.510018,5.0186 -0.587269,0.89832 -0.604971,1.90447 -0.651078,2.27104 -0.270028,1.15108 8.992378,1.73634 15.356688,1.69054 z"
     fill="#FD7009"
     id="path118"
     style="mix-blend-mode:multiply;fill:url(#linearGradient118);fill-opacity:1;stroke-width:0.617671"
     sodipodi:nodetypes="ccccccscccccccccccccccccccccc" />
  <path
     d="m 117.31878,196.83598 c 0.61454,0.003 1.22908,0.006 1.86221,0.007 2.02832,0.005 4.0558,-0.0146 6.08403,-0.0344 1.40878,-0.003 2.81755,-0.005 4.22633,-0.005 2.95019,-0.004 5.90011,-0.0189 8.85021,-0.0421 3.78821,-0.0296 7.57617,-0.0391 11.36446,-0.0416 2.9075,-0.003 5.81495,-0.0128 8.72241,-0.0254 1.39732,-0.006 2.79464,-0.0102 4.19197,-0.0132 1.94828,-0.006 3.89635,-0.0205 5.84458,-0.0378 0.58138,-4.4e-4 1.16276,-6.5e-4 1.76178,-9.3e-4 0.79304,-0.01 0.79304,-0.01 1.60211,-0.0198 0.46068,-0.003 0.92133,-0.006 1.39595,-0.009 1.12877,-0.16973 1.12877,-0.16973 2.3552,-1.47509 -0.17822,-3.79374 -2.17991,-7.58607 -3.87711,-11.49873 -0.73201,-1.22258 -0.8377,-2.06622 -3.12707,-2.05374 -0.85428,-0.007 -2.52176,0.14096 -3.39332,0.13436 -1.88655,-0.012 -4.16517,-0.15696 -6.05176,-0.15396 -1.30989,-0.003 -3.60063,-0.0563 -4.91052,-0.0597 -2.74763,-0.006 -5.9202,0.0453 -8.66783,0.0513 -3.52144,0.007 -6.78093,-0.10465 -10.30232,-0.12335 -2.70608,-0.012 -4.07158,0.0375 -6.77769,0.0413 -1.29825,1e-4 -2.95615,-0.004 -4.25437,-0.012 -1.81604,-0.01 -2.61779,-0.003 -4.4338,0.008 -0.80483,-0.009 -2.53769,-0.10764 -3.35879,-0.11774 -2.50947,0.0324 -3.77931,-0.0147 -5.94935,1.44287 -1.74314,1.96258 -2.48306,4.34951 -2.57999,6.99658 -0.03,0.55613 -0.19087,3.82491 -0.22181,4.3979 -0.18123,1.79926 5.37313,2.71409 9.64449,2.6425 z"
     fill="#FD7009"
     id="path120"
     style="mix-blend-mode:multiply;fill:url(#linearGradient122);fill-opacity:1;stroke-width:0.632642"
     sodipodi:nodetypes="ccccccscccccccccccccccccccccc" />
  <path
     d="m 118.21107,191.25877 c 0.60512,0.002 1.21024,0.004 1.83369,0.004 1.99725,0.003 3.99368,-0.009 5.99084,-0.022 1.38721,-0.002 2.7744,-0.003 4.16161,-0.003 2.905,-0.003 5.80973,-0.0121 8.71466,-0.0269 3.73021,-0.0189 7.46014,-0.025 11.19042,-0.0266 2.86297,-0.002 5.72589,-0.008 8.58882,-0.0163 1.37593,-0.004 2.75184,-0.007 4.12776,-0.008 1.91845,-0.004 3.83668,-0.0131 5.75508,-0.0242 0.57248,-2.8e-4 1.14495,-4.2e-4 1.7348,-6e-4 0.78089,-0.006 0.78089,-0.006 1.57757,-0.0127 0.45361,-0.002 0.90723,-0.004 1.37458,-0.006 1.11147,-0.10859 1.11147,-0.10859 2.31912,-0.94369 -0.17549,-2.42705 -2.14651,-4.85321 -3.81773,-7.35634 -0.7208,-0.78215 -0.82487,-1.32187 -3.07918,-1.31388 -0.8412,-0.004 -2.48314,0.0902 -3.34134,0.086 -1.85767,-0.008 -4.10139,-0.10042 -5.95908,-0.0985 -1.28983,-0.002 -3.54548,-0.036 -4.83531,-0.0382 -2.70556,-0.004 -5.82953,0.029 -8.53508,0.0328 -3.46752,0.004 -6.67709,-0.0669 -10.14454,-0.0789 -2.66465,-0.008 -4.00922,0.024 -6.6739,0.0264 -1.27837,7e-5 -2.91088,-0.003 -4.18921,-0.008 -1.78822,-0.006 -2.5777,-0.002 -4.3659,0.005 -0.7925,-0.006 -2.49883,-0.0689 -3.30734,-0.0753 -2.47105,0.0207 -3.72143,-0.009 -5.85824,0.92308 -1.71644,1.25556 -2.88504,3.32514 -2.9805,5.0186 -0.38811,0.89832 -0.3998,1.90447 -0.43028,2.27104 -0.17844,1.15108 5.94273,1.73634 10.14868,1.69054 z"
     fill="#FD7009"
     id="path121"
     style="mix-blend-mode:multiply;fill:url(#linearGradient121);fill-opacity:1;stroke-width:0.502126"
     sodipodi:nodetypes="ccccccscccccccccccccccccccccc" />
  <path
     d="m 97.353498,155.93554 c 0.760376,0.003 1.520764,0.006 2.304165,0.007 2.509707,0.005 5.018367,-0.0146 7.527967,-0.0344 1.74312,-0.003 3.48624,-0.005 5.22936,-0.005 3.65037,-0.004 7.3004,-0.0189 10.95066,-0.0421 4.68728,-0.0296 9.37423,-0.0391 14.06163,-0.0416 3.59753,-0.003 7.19501,-0.0128 10.7925,-0.0254 1.72895,-0.006 3.4579,-0.0102 5.18687,-0.0132 2.41067,-0.006 4.82108,-0.0205 7.23169,-0.0378 0.71936,-4.4e-4 1.43872,-6.5e-4 2.17989,-9.3e-4 0.98127,-0.01 0.98127,-0.01 1.98236,-0.0198 0.57,-0.003 1.13999,-0.006 1.72725,-0.009 1.39665,-0.16973 2.93793,-0.0218 3.19775,-1.36412 0.43097,-3.99274 1.32921,-8.74419 -4.58766,-11.95495 -1.69485,-1.32122 -1.52972,-1.72097 -4.36242,-1.70849 -1.05703,-0.007 -3.12026,0.14096 -4.19867,0.13436 -2.3343,-0.012 -5.15369,-0.15696 -7.48804,-0.15396 -1.62077,-0.003 -4.45518,-0.0563 -6.07594,-0.0597 -3.39974,-0.006 -7.32526,0.0453 -10.72498,0.0513 -4.35721,0.007 -8.39028,-0.10465 -12.7474,-0.12335 -3.34833,-0.012 -5.0379,0.0375 -8.38627,0.0413 -1.60636,10e-5 -3.65773,-0.004 -5.26407,-0.012 -2.24702,-0.01 -3.23906,-0.003 -5.48607,0.008 -0.995844,-0.009 -3.139975,-0.10764 -4.155936,-0.11774 -3.105052,0.0324 -4.676264,-0.0147 -7.361324,1.44287 -2.156843,1.96258 -3.072363,4.34951 -3.192315,6.99658 -0.0371,0.55613 -0.236154,3.82491 -0.274447,4.3979 -0.224232,1.79926 6.648361,2.71409 11.93345,2.6425 z"
     fill="#FD7009"
     id="path122"
     style="mix-blend-mode:multiply;fill:url(#linearGradient124);fill-opacity:1;stroke-width:0.703723"
     sodipodi:nodetypes="ccccccscccccccccccccccccccccc" />
  <path
     d="m 96.814701,150.35833 c 0.766064,0.002 1.532129,0.004 2.321388,0.004 2.528471,0.003 5.055881,-0.009 7.584231,-0.022 1.75615,-0.002 3.5123,-0.003 5.26845,-0.003 3.67765,-0.003 7.35495,-0.0121 11.0325,-0.0269 4.72233,-0.0189 9.4443,-0.025 14.16672,-0.0266 3.62443,-0.002 7.2488,-0.008 10.87318,-0.0163 1.74188,-0.004 3.48374,-0.007 5.22561,-0.008 2.42871,-0.004 4.85713,-0.0131 7.28575,-0.0242 0.72475,-2.8e-4 1.44948,-4.2e-4 2.19619,-6e-4 0.9886,-0.006 0.9886,-0.006 1.99718,-0.0127 0.57425,-0.002 1.14851,-0.004 1.74016,-0.006 1.40709,-0.10859 1.40709,-0.10859 2.93594,-0.94369 -0.22216,-2.42705 -2.71742,-4.85321 -4.83313,-7.35634 -0.9125,-0.78215 -1.04426,-1.32187 -3.89814,-1.31388 -1.06492,-0.004 -3.14357,0.0902 -4.23003,0.086 -2.35176,-0.008 -5.19223,-0.10042 -7.54402,-0.0985 -1.63289,-0.002 -4.48848,-0.036 -6.12136,-0.0382 -3.42514,-0.004 -7.37999,0.029 -10.80514,0.0328 -4.38977,0.004 -8.45298,-0.0669 -12.84267,-0.0789 -3.37336,-0.008 -5.07555,0.024 -8.44894,0.0264 -1.61838,7e-5 -3.68507,-0.003 -5.30341,-0.008 -2.26383,-0.006 -3.26329,-0.002 -5.527084,0.005 -1.003288,-0.006 -3.163452,-0.0689 -4.187005,-0.0753 -3.128255,0.0207 -4.711204,-0.009 -7.416343,0.92308 -2.172961,1.25556 -4.034612,3.57174 -4.587009,5.04326 -0.713277,0.49142 -0.950027,1.86748 -0.988609,2.23405 -0.225907,1.15108 8.780997,1.74867 14.105591,1.70287 z"
     fill="#FD7009"
     id="path123"
     style="mix-blend-mode:multiply;fill:url(#linearGradient123);fill-opacity:1;stroke-width:0.564968"
     sodipodi:nodetypes="ccccccscccccccccccccccccccccc" />
  <path
     d="m 75.132691,104.07943 c 0.997701,-0.003 1.995416,-0.007 3.023326,-0.008 3.293021,-0.006 6.584663,0.0164 9.877553,0.0387 2.287166,0.003 4.574334,0.006 6.861514,0.006 4.789692,0.004 9.578956,0.0213 14.368506,0.0474 6.15025,0.0333 12.30006,0.044 18.45045,0.0468 4.72038,0.003 9.44067,0.0144 14.16099,0.0286 2.26858,0.007 4.53716,0.0115 6.80577,0.0149 3.16306,0.007 6.3258,0.0231 9.48879,0.0426 0.9439,5e-4 1.88777,7.3e-4 2.86027,0.001 1.28754,0.0113 1.28754,0.0113 2.60109,0.0223 0.7479,0.003 1.49579,0.007 2.26635,0.0101 1.83254,0.19113 1.83254,0.19113 3.8237,1.66107 -0.28933,4.27207 -3.53912,8.54254 -6.29459,12.94852 -1.18839,1.37673 -1.36,2.32674 -5.07683,2.31268 -1.38695,0.008 -4.09414,-0.15873 -5.50912,-0.1513 -3.06287,0.0135 -6.76224,0.17675 -9.82517,0.17337 -2.12664,0.003 -5.8457,0.0634 -7.97233,0.0672 -4.46083,0.007 -9.61157,-0.051 -14.07239,-0.0578 -5.71715,-0.008 -11.00901,0.11785 -16.72603,0.1389 -4.393391,0.0135 -6.610299,-0.0422 -11.003749,-0.0465 -2.107722,-1.1e-4 -4.799358,0.005 -6.907054,0.0135 -2.948345,0.0113 -4.250016,0.003 -7.198349,-0.009 -1.30666,0.0101 -4.120004,0.12121 -5.453059,0.13259 -4.074182,-0.0365 -6.135791,0.0166 -9.658895,-1.62479 -2.830023,-2.21003 -4.031288,-4.89791 -4.18868,-7.87873 -0.04868,-0.62625 -0.30986,-4.30716 -0.360105,-4.9524 -0.294218,-2.02611 8.723404,-3.05629 15.658042,-2.97567 z"
     fill="#FD7009"
     id="path125"
     style="mix-blend-mode:multiply;fill:url(#linearGradient127);fill-opacity:1;stroke-width:0.855406"
     sodipodi:nodetypes="ccccccscccccccccccccccccccccc" />
  <path
     d="m 76.29195,110.35983 c 0.985479,-0.002 1.970958,-0.005 2.986275,-0.005 3.252664,-0.003 6.503975,0.0101 9.756485,0.0248 2.259142,0.002 4.518284,0.003 6.777439,0.003 4.730991,0.003 9.461531,0.0136 14.192391,0.0303 6.07489,0.0213 12.14932,0.0281 18.22434,0.0299 4.66251,0.002 9.32498,0.009 13.98744,0.0184 2.24078,0.004 4.48155,0.008 6.72232,0.009 3.12433,0.004 6.2483,0.0147 9.37252,0.0272 0.93232,3.1e-4 1.86463,4.7e-4 2.82521,6.7e-4 1.27176,0.007 1.27176,0.007 2.56921,0.0143 0.73873,0.002 1.47746,0.005 2.23858,0.007 1.81011,0.12228 1.81011,0.12228 3.77684,1.06267 -0.28579,2.73306 -3.49573,5.46512 -6.21743,8.28385 -1.17386,0.88076 -1.34335,1.48853 -5.01463,1.47954 -1.36994,0.004 -4.04395,-0.10158 -5.44159,-0.0969 -3.02535,0.009 -6.67937,0.11308 -9.70475,0.11092 -2.10058,0.002 -5.77406,0.0405 -7.87464,0.043 -4.40617,0.004 -9.49375,-0.0327 -13.89992,-0.0369 -5.64707,-0.005 -10.87407,0.0753 -16.52104,0.0888 -4.33954,0.009 -6.529284,-0.027 -10.868866,-0.0297 -2.081905,-8e-5 -4.740545,0.003 -6.822411,0.009 -2.912218,0.007 -4.197941,0.002 -7.110129,-0.006 -1.290647,0.007 -4.06952,0.0776 -5.386237,0.0848 -4.024243,-0.0233 -6.060577,0.0101 -9.540516,-1.03947 -2.795335,-1.41386 -4.698482,-3.74438 -4.853931,-5.65136 -0.632062,-1.01158 -0.651108,-2.14459 -0.700739,-2.55737 -0.290612,-1.29622 9.678127,-1.95527 16.527779,-1.90369 z"
     fill="#FD7009"
     id="path126"
     style="mix-blend-mode:multiply;fill:url(#linearGradient126);fill-opacity:1;stroke-width:0.679987"
     sodipodi:nodetypes="ccccccscccccccccccccccccccccc" />
  <path
     d="m 114.96867,64.182325 c 0.78058,-0.003 1.56116,-0.007 2.36537,-0.008 2.57637,-0.006 5.15166,0.0164 7.72793,0.0387 1.78942,0.003 3.57884,0.006 5.36827,0.006 3.74733,0.004 7.49432,0.0213 11.24154,0.0474 4.81179,0.0333 9.62324,0.044 14.43514,0.0468 3.6931,0.003 7.38613,0.0144 11.07918,0.0286 1.77488,0.007 3.54975,0.0115 5.32465,0.0149 2.4747,0.007 4.94914,0.0231 7.42378,0.0426 0.73848,5e-4 1.47694,7.3e-4 2.2378,10e-4 1.00734,0.0113 1.00734,0.0113 2.03502,0.0223 0.58514,0.003 1.17027,0.007 1.77314,0.0101 1.43373,0.19113 1.43373,0.19113 2.99156,1.66107 -0.22637,4.27207 -2.76892,8.54254 -4.92472,12.94852 -0.92977,1.37673 -1.06403,2.32674 -3.97198,2.31268 -1.08511,0.008 -3.20315,-0.15873 -4.31019,-0.1513 -2.39631,0.0135 -5.2906,0.17675 -7.68695,0.17337 -1.66383,0.003 -4.57352,0.0634 -6.23734,0.0672 -3.49003,0.007 -7.51984,-0.051 -11.00986,-0.0578 -4.47295,-0.008 -8.61316,0.11785 -13.08601,0.1389 -3.43727,0.0135 -5.17172,-0.0422 -8.60904,-0.0465 -1.64902,-1.1e-4 -3.75488,0.005 -5.40389,0.0135 -2.3067,0.0113 -3.3251,0.003 -5.6318,-0.009 -1.02229,0.0101 -3.22338,0.12121 -4.26633,0.13259 -3.18753,-0.0365 -4.80048,0.0166 -7.55685,-1.62479 -2.21415,-2.21003 -3.15398,-4.89791 -3.27712,-7.87873 -0.0381,-0.62625 -0.24242,-4.30716 -0.28174,-4.9524 -0.23019,-2.02611 6.82497,-3.05629 12.25044,-2.97567 z"
     fill="#FD7009"
     id="path127"
     style="mix-blend-mode:multiply;fill:url(#linearGradient129);fill-opacity:1;stroke-width:0.756623"
     sodipodi:nodetypes="ccccccscccccccccccccccccccccc" />
  <path
     d="m 115.87564,70.462725 c 0.77101,-0.002 1.54203,-0.005 2.33639,-0.005 2.54479,-0.003 5.08853,0.0101 7.63321,0.0248 1.7675,0.002 3.53499,0.003 5.30249,0.003 3.7014,0.003 7.40245,0.0136 11.10375,0.0303 4.75283,0.0213 9.5053,0.0281 14.25823,0.0299 3.64783,0.002 7.29562,0.009 10.94341,0.0184 1.75312,0.004 3.50624,0.008 5.25936,0.009 2.44439,0.004 4.8885,0.0147 7.33281,0.0272 0.72942,3.1e-4 1.45884,4.7e-4 2.21037,6.7e-4 0.99499,0.007 0.99499,0.007 2.01008,0.0143 0.57796,0.002 1.15593,0.005 1.75141,0.007 1.41618,0.12228 1.41618,0.12228 2.9549,1.06267 -0.2236,2.73306 -2.73497,5.46512 -4.86436,8.28385 -0.91839,0.88076 -1.051,1.48853 -3.92331,1.47954 -1.0718,0.004 -3.16388,-0.10158 -4.25735,-0.0969 -2.36696,0.009 -5.22577,0.11308 -7.59274,0.11092 -1.64344,0.002 -4.51747,0.0405 -6.16091,0.043 -3.44727,0.004 -7.42766,-0.0327 -10.87493,-0.0369 -4.41812,-0.005 -8.50758,0.0753 -12.92562,0.0888 -3.39514,0.009 -5.10834,-0.027 -8.50351,-0.0297 -1.62883,-8e-5 -3.70888,0.003 -5.33767,0.009 -2.27844,0.007 -3.28436,0.002 -5.56278,-0.006 -1.00977,0.007 -3.18388,0.0776 -4.21405,0.0848 -3.14846,-0.0233 -4.74164,0.0101 -7.46425,-1.03947 -2.18699,-1.41386 -3.67596,-3.74438 -3.79758,-5.65136 -0.49451,-1.01158 -0.50941,-2.14459 -0.54824,-2.55737 -0.22737,-1.29622 7.57191,-1.95527 12.93089,-1.90369 z"
     fill="#FD7009"
     id="path128"
     style="mix-blend-mode:multiply;fill:url(#linearGradient128);fill-opacity:1;stroke-width:0.601461"
     sodipodi:nodetypes="ccccccscccccccccccccccccccccc" />
  <path
     d="m 50.463179,197.95689 c 0.466676,0.003 0.933359,0.006 1.414166,0.007 1.540315,0.005 3.079988,-0.0146 4.620237,-0.0344 1.069828,-0.003 2.139656,-0.005 3.209484,-0.005 2.240389,-0.004 4.48057,-0.0189 6.720892,-0.0421 2.876786,-0.0296 5.753369,-0.0391 8.630228,-0.0416 2.207959,-0.003 4.415889,-0.0128 6.623824,-0.0254 1.061131,-0.006 2.122262,-0.0102 3.183405,-0.0132 1.479532,-0.006 2.958905,-0.0205 4.4384,-0.0378 0.441502,-4.4e-4 0.883005,-6.5e-4 1.337893,-9.3e-4 0.602247,-0.01 0.602247,-0.01 1.216659,-0.0198 0.349834,-0.003 0.699661,-0.006 1.060088,-0.009 0.857184,-0.16973 1.803134,-0.0218 1.962597,-1.36412 0.264505,-3.99274 0.815793,-8.74419 -2.815645,-11.95495 -1.040202,-1.32122 -0.938855,-1.72097 -2.677405,-1.70849 -0.648745,-0.007 -1.915038,0.14096 -2.576904,0.13436 -1.432661,-0.012 -3.163042,-0.15696 -4.595733,-0.15396 -0.994737,-0.003 -2.734336,-0.0563 -3.729066,-0.0597 -2.086569,-0.006 -4.495829,0.0453 -6.582384,0.0513 -2.674208,0.007 -5.149476,-0.10465 -7.823629,-0.12335 -2.055014,-0.012 -3.091976,0.0375 -5.147015,0.0413 -0.985892,1e-4 -2.244906,-0.004 -3.230787,-0.012 -1.379093,-0.01 -1.98795,-0.003 -3.367037,0.008 -0.611192,-0.009 -1.927138,-0.10764 -2.550677,-0.11774 -1.905704,0.0324 -2.870025,-0.0147 -4.517962,1.44287 -1.323747,1.96258 -1.885641,4.34951 -1.959261,6.99658 -0.02277,0.55613 -0.144938,3.82491 -0.16844,4.3979 -0.137621,1.79926 4.080386,2.71409 7.324072,2.6425 z"
     fill="#FD7009"
     id="path131"
     style="mix-blend-mode:multiply;fill:url(#linearGradient133);fill-opacity:1;stroke-width:0.551309"
     sodipodi:nodetypes="ccccccscccccccccccccccccccccc" />
  <path
     d="m 50.132496,192.37968 c 0.470167,0.002 0.940334,0.004 1.424736,0.004 1.551832,0.003 3.103012,-0.009 4.65477,-0.022 1.077825,-0.002 2.15565,-0.003 3.233474,-0.003 2.257133,-0.003 4.51405,-0.0121 6.771121,-0.0269 2.898298,-0.0189 5.796374,-0.025 8.694727,-0.0266 2.224468,-0.002 4.448902,-0.008 6.67334,-0.0163 1.069067,-0.004 2.138121,-0.007 3.207182,-0.008 1.490604,-0.004 2.98103,-0.0131 4.471579,-0.0242 0.44481,-2.8e-4 0.889608,-4.2e-4 1.347896,-6e-4 0.606747,-0.006 0.606747,-0.006 1.225756,-0.0127 0.352441,-0.002 0.70489,-0.004 1.068011,-0.006 0.863591,-0.10859 0.863591,-0.10859 1.801913,-0.94369 -0.13635,-2.42705 -1.667798,-4.85321 -2.966301,-7.35634 -0.56004,-0.78215 -0.640907,-1.32187 -2.392456,-1.31388 -0.653587,-0.004 -1.929344,0.0902 -2.596152,0.086 -1.443376,-0.008 -3.186695,-0.10042 -4.63009,-0.0985 -1.002175,-0.002 -2.754773,-0.036 -3.756942,-0.0382 -2.102158,-0.004 -4.529419,0.029 -6.631582,0.0328 -2.694191,0.004 -5.187958,-0.0669 -7.882099,-0.0789 -2.070377,-0.008 -3.115084,0.024 -5.185479,0.0264 -0.99327,7e-5 -2.261686,-0.003 -3.254931,-0.008 -1.38941,-0.006 -2.002822,-0.002 -3.39221,0.005 -0.615761,-0.006 -1.941547,-0.0689 -2.569745,-0.0753 -1.919945,0.0207 -2.891469,-0.009 -4.55173,0.92308 -1.333639,1.25556 -2.476215,3.57174 -2.815245,5.04326 -0.437768,0.49142 -0.583072,1.86748 -0.606752,2.23405 -0.138648,1.15108 5.389277,1.74867 8.657209,1.70287 z"
     fill="#FD7009"
     id="path132"
     style="mix-blend-mode:multiply;fill:url(#linearGradient132);fill-opacity:1;stroke-width:0.442606"
     sodipodi:nodetypes="ccccccscccccccccccccccccccccc" />
  <path
     d="m 15.421653,156.92196 c 0.542249,0.003 1.084505,0.006 1.643172,0.007 1.78975,0.005 3.578753,-0.0146 5.368425,-0.0344 1.243073,-0.003 2.486146,-0.005 3.729218,-0.005 2.603191,-0.004 5.206141,-0.0189 7.809254,-0.0421 3.342644,-0.0296 6.685053,-0.0391 10.027781,-0.0416 2.56551,-0.003 5.130986,-0.0128 7.696467,-0.0254 1.232967,-0.006 2.465934,-0.0102 3.698916,-0.0132 1.719123,-0.006 3.438062,-0.0205 5.157142,-0.0378 0.512997,-4.4e-4 1.025996,-6.5e-4 1.554547,-9.3e-4 0.699773,-0.01 0.699773,-0.01 1.413681,-0.0198 0.406485,-0.003 0.812962,-0.006 1.231755,-0.009 0.995994,-0.16973 2.095128,-0.0218 2.280414,-1.36412 0.307339,-3.99274 0.947901,-8.74419 -3.271601,-11.95495 -1.20865,-1.32122 -1.090891,-1.72097 -3.110976,-1.70849 -0.753802,-0.007 -2.225154,0.14096 -2.994201,0.13436 -1.664662,-0.012 -3.675255,-0.15696 -5.339952,-0.15396 -1.155822,-0.003 -3.177127,-0.0563 -4.33294,-0.0597 -2.424462,-0.006 -5.22387,0.0453 -7.648315,0.0513 -3.107263,0.007 -5.983368,-0.10465 -9.090565,-0.12335 -2.387797,-0.012 -3.592682,0.0375 -5.980507,0.0413 -1.145545,1e-4 -2.608441,-0.004 -3.753972,-0.012 -1.602419,-0.01 -2.309872,-0.003 -3.912285,0.008 -0.710166,-0.009 -2.239213,-0.10764 -2.963725,-0.11774 -2.214309,0.0324 -3.334789,-0.0147 -5.2495883,1.44287 -1.5381107,1.96258 -2.1909961,4.34951 -2.276538,6.99658 -0.026458,0.55613 -0.1684088,3.82491 -0.1957166,4.3979 -0.159907,1.79926 4.7411509,2.71409 8.5101099,2.6425 z"
     fill="#FD7009"
     id="path133"
     style="mix-blend-mode:multiply;fill:url(#linearGradient135);fill-opacity:1;stroke-width:0.594274"
     sodipodi:nodetypes="ccccccscccccccccccccccccccccc" />
  <path
     d="m 15.037421,151.34475 c 0.546305,0.002 1.092609,0.004 1.655453,0.004 1.803131,0.003 3.605505,-0.009 5.40855,-0.022 1.252365,-0.002 2.50473,-0.003 3.757094,-0.003 2.622646,-0.003 5.245041,-0.0121 7.867616,-0.0269 3.36764,-0.0189 6.735021,-0.025 10.102725,-0.0266 2.584692,-0.002 5.169344,-0.008 7.754001,-0.0163 1.242188,-0.004 2.484362,-0.007 3.726543,-0.008 1.731988,-0.004 3.463769,-0.0131 5.195694,-0.0242 0.516841,-2.8e-4 1.033668,-4.2e-4 1.56617,-6e-4 0.705002,-0.006 0.705002,-0.006 1.424251,-0.0127 0.409514,-0.002 0.819039,-0.004 1.240962,-0.006 1.003438,-0.10859 1.003438,-0.10859 2.09371,-0.94369 -0.158431,-2.42705 -1.937876,-4.85321 -3.446655,-7.35634 -0.650732,-0.78215 -0.744694,-1.32187 -2.779884,-1.31388 -0.759427,-0.004 -2.241776,0.0902 -3.016565,0.086 -1.677112,-0.008 -3.702739,-0.10042 -5.379873,-0.0985 -1.164464,-0.002 -3.200873,-0.036 -4.36533,-0.0382 -2.442576,-0.004 -5.2629,0.029 -7.705481,0.0328 -3.13048,0.004 -6.02808,-0.0669 -9.158503,-0.0789 -2.405648,-0.008 -3.619532,0.024 -6.025199,0.0264 -1.154118,7e-5 -2.627937,-0.003 -3.782026,-0.008 -1.614406,-0.006 -2.327153,-0.002 -3.941535,0.005 -0.715475,-0.006 -2.255955,-0.0689 -2.985881,-0.0753 -2.230855,0.0207 -3.359705,-0.009 -5.2888239,0.92308 -1.5496046,1.25556 -2.8772059,3.57174 -3.2711375,5.04326 -0.5086589,0.49142 -0.6774929,1.86748 -0.7050076,2.23405 -0.1611003,1.15108 6.262001,1.74867 10.059132,1.70287 z"
     fill="#FD7009"
     id="path134"
     style="mix-blend-mode:multiply;fill:url(#linearGradient134);fill-opacity:1;stroke-width:0.477099"
     sodipodi:nodetypes="ccccccscccccccccccccccccccccc" />
</svg>
